HIERARCHY
ROOT Hips
{
	OFFSET 0.00000 0.00000 0.00000
	CHANNELS 6 Xposition Yposition Zposition Zrotation Yrotation Xrotation 
	JOINT LHipJoint
	{
		OFFSET 0 0 0
		CHANNELS 3 Zrotation Yrotation Xrotation
		JOINT LeftUpLeg
		{
			OFFSET 1.37590 -1.78394 0.89329
			CHANNELS 3 Zrotation Yrotation Xrotation
			JOINT LeftLeg
			{
				OFFSET 2.47928 -6.81178 0.00000
				CHANNELS 3 Zrotation Yrotation Xrotation
				JOINT LeftFoot
				{
					OFFSET 2.63345 -7.23535 0.00000
					CHANNELS 3 Zrotation Yrotation Xrotation
					JOINT LeftToeBase
					{
						OFFSET 0.23938 -0.65768 2.27012
						CHANNELS 3 Zrotation Yrotation Xrotation
						End Site
						{
							OFFSET 0.00000 -0.00000 1.18363
						}
					}
				}
			}
		}
	}
	JOINT RHipJoint
	{
		OFFSET 0 0 0
		CHANNELS 3 Zrotation Yrotation Xrotation
		JOINT RightUpLeg
		{
			OFFSET -1.33617 -1.78394 0.89329
			CHANNELS 3 Zrotation Yrotation Xrotation
			JOINT RightLeg
			{
				OFFSET -2.56922 -7.05888 0.00000
				CHANNELS 3 Zrotation Yrotation Xrotation
				JOINT RightFoot
				{
					OFFSET -2.56568 -7.04915 0.00000
					CHANNELS 3 Zrotation Yrotation Xrotation
					JOINT RightToeBase
					{
						OFFSET -0.27533 -0.75646 2.18105
						CHANNELS 3 Zrotation Yrotation Xrotation
						End Site
						{
							OFFSET -0.00000 -0.00000 1.15233
						}
					}
				}
			}
		}
	}
	JOINT LowerBack
	{
		OFFSET 0 0 0
		CHANNELS 3 Zrotation Yrotation Xrotation
		JOINT Spine
		{
			OFFSET 0.06190 2.15152 -0.00935
			CHANNELS 3 Zrotation Yrotation Xrotation
			JOINT Spine1
			{
				OFFSET 0.06334 2.15332 0.00872
				CHANNELS 3 Zrotation Yrotation Xrotation
				JOINT Neck
				{
					OFFSET 0 0 0
					CHANNELS 3 Zrotation Yrotation Xrotation
					JOINT Neck1
					{
						OFFSET -0.04202 1.66908 0.23524
						CHANNELS 3 Zrotation Yrotation Xrotation
						JOINT Head
						{
							OFFSET 0.07510 1.69357 -0.24440
							CHANNELS 3 Zrotation Yrotation Xrotation
							End Site
							{
								OFFSET 0.02556 1.71719 -0.11000
							}
						}
					}
				}
				JOINT LeftShoulder
				{
					OFFSET 0 0 0
					CHANNELS 3 Zrotation Yrotation Xrotation
					JOINT LeftArm
					{
						OFFSET 3.67168 1.26306 -0.41342
						CHANNELS 3 Zrotation Yrotation Xrotation
						JOINT LeftForeArm
						{
							OFFSET 4.68510 -0.00000 -0.00000
							CHANNELS 3 Zrotation Yrotation Xrotation
							JOINT LeftHand
							{
								OFFSET 3.39626 -0.00000 -0.00000
								CHANNELS 3 Zrotation Yrotation Xrotation
								JOINT LeftFingerBase
								{
									OFFSET 0 0 0
									CHANNELS 3 Zrotation Yrotation Xrotation
									JOINT LeftHandIndex1
									{
										OFFSET 0.48608 -0.00000 -0.00000
										CHANNELS 3 Zrotation Yrotation Xrotation
										End Site
										{
											OFFSET 0.39189 -0.00000 -0.00000
										}
									}
								}
								JOINT LThumb
								{
									OFFSET 0 0 0
									CHANNELS 3 Zrotation Yrotation Xrotation
									End Site
									{
										OFFSET 0.39787 -0.00000 0.39787
									}
								}
							}
						}
					}
				}
				JOINT RightShoulder
				{
					OFFSET 0 0 0
					CHANNELS 3 Zrotation Yrotation Xrotation
					JOINT RightArm
					{
						OFFSET -3.04136 1.42992 -0.76390
						CHANNELS 3 Zrotation Yrotation Xrotation
						JOINT RightForeArm
						{
							OFFSET -5.55576 -0.00000 -0.00000
							CHANNELS 3 Zrotation Yrotation Xrotation
							JOINT RightHand
							{
								OFFSET -3.32774 -0.00000 -0.00000
								CHANNELS 3 Zrotation Yrotation Xrotation
								JOINT RightFingerBase
								{
									OFFSET 0 0 0
									CHANNELS 3 Zrotation Yrotation Xrotation
									JOINT RightHandIndex1
									{
										OFFSET -0.50763 -0.00000 -0.00000
										CHANNELS 3 Zrotation Yrotation Xrotation
										End Site
										{
											OFFSET -0.40926 -0.00000 -0.00000
										}
									}
								}
								JOINT RThumb
								{
									OFFSET 0 0 0
									CHANNELS 3 Zrotation Yrotation Xrotation
									End Site
									{
										OFFSET -0.41551 -0.00000 0.41551
									}
								}
							}
						}
					}
				}
			}
		}
	}
}
MOTION
Frames: 5
Frame Time: 0.0540541
0.00 0.00 0.00 -94.5023 -79.2193 101.6860 0.0000 0.0000 0.0000 0.2907 -10.8803 -29.7017 0.8735 5.9587 16.6647 -0.0910 7.2569 -7.8796 0.7320 -5.4663 -15.2435 0.0000 0.0000 0.0000 36.0557 3.8879 2.9669 -0.4310 -4.2133 11.6776 -0.4022 -7.4170 -16.9337 -0.1385 -2.3987 6.6090 10.6107 3.3957 -2.6021 1.4339 4.3016 -3.1399 -4.3356 1.9329 -1.1544 -5.0678 -1.4484 -18.0888 -3.2799 -0.0473 16.2066 -0.2802 -0.7141 8.0238 -0.0000 -0.0000 0.0000 -82.2749 9.1826 28.2099 85.0304 -59.9065 -55.6975 -0.0000 -0.0000 8.9352 4.2143 14.8979 1.0853 -7.1250 0.0000 -0.0000 -21.2336 43.8293 0.6442 -0.0000 -0.0000 0.0000 41.9690 29.6863 -6.5030 -42.5019 49.4843 -20.3213 0.0000 -0.0000 -21.3829 -11.3125 -28.3481 5.4261 7.1250 -0.0000 -0.0000 21.3245 -57.5010 -6.7323
0.00 0.00 0.00 -94.0867 -81.5168 100.1030 0.0000 0.0000 0.0000 -4.5943 -14.2119 -30.1027 1.4003 7.4856 21.1622 -0.0090 2.4862 1.0401 0.1632 -2.6030 -7.1755 0.0000 0.0000 0.0000 33.8229 3.4132 6.6537 -2.1498 -9.1714 26.3331 -0.6354 -8.0731 -20.0993 -0.6193 5.0363 -14.0122 8.1217 3.6441 -2.8807 -1.4241 4.6665 -2.4445 -5.8713 2.2361 -0.1601 -4.8845 -0.9290 -17.7337 -4.0489 0.9204 22.3611 -0.5049 -0.5762 10.0971 -0.0000 -0.0000 0.0000 -93.0572 1.8073 30.0351 92.4479 -59.9773 -62.1198 -0.0000 0.0000 -10.5304 -0.5295 17.8360 -0.1622 -7.1250 0.0000 -0.0000 -26.5542 45.9566 -0.6747 -0.0000 -0.0000 0.0000 47.5777 32.4347 -15.0862 -57.8197 55.7004 -32.5333 0.0000 -0.0000 -27.4292 -14.9843 -36.6740 9.0824 7.1250 -0.0000 -0.0000 25.0096 -65.9769 -13.0167
0.00 0.00 0.00 -92.5671 -81.9095 97.8579 0.0000 0.0000 0.0000 -6.5064 -13.6979 -27.7240 1.7578 8.3423 23.7587 0.0063 0.1442 1.4510 0.0036 0.3893 1.0697 0.0000 0.0000 0.0000 32.0657 2.0795 2.0901 -4.1484 -12.3553 37.0006 0.0335 -8.9346 -12.0957 -0.6082 4.9918 -13.8852 7.5481 3.2534 -2.5286 -1.7902 4.1854 -2.2598 -5.9722 2.0044 -0.2533 -4.8031 -0.2901 -17.4604 -4.2272 1.8440 24.0191 -0.4728 -0.2479 10.6506 -0.0000 0.0000 0.0000 -92.2569 -1.5740 27.0316 89.9802 -60.0000 -59.9829 -0.0000 0.0000 -18.1447 -1.9705 18.4988 -0.6254 -7.1250 0.0000 -0.0000 -28.1133 46.3631 -1.0263 -0.0000 0.0000 0.0000 57.9583 28.8502 -6.8760 -79.1566 59.5510 -50.6235 0.0000 -0.0000 -24.6407 -15.7010 -35.8421 9.3472 7.1250 -0.0000 -0.0000 23.2371 -65.4411 -11.7631
0.00 0.00 0.00 -95.8107 -83.6580 100.4450 0.0000 0.0000 0.0000 -9.9659 -13.8597 -23.6501 1.7805 8.3931 23.9146 0.0015 -0.4947 -0.7280 0.0150 0.7901 2.1713 0.0000 0.0000 0.0000 28.2498 1.0004 -4.4518 -6.8010 -15.1620 48.1176 0.4903 -13.9443 1.9062 -0.0004 0.1242 -0.3413 5.2732 2.7158 -2.0834 -1.9708 3.5277 -2.0791 -4.9229 1.6922 -0.5343 -4.1938 0.8890 -16.8928 -5.3517 3.5881 25.2057 -0.7515 0.3893 11.0209 0.0000 0.0000 0.0000 -91.2554 -5.5198 21.8706 83.5864 -59.8440 -54.4485 -0.0000 0.0000 -25.9442 2.1599 20.4181 0.7538 -7.1250 0.0000 -0.0000 -25.4194 48.6365 -2.4249 0.0000 0.0000 0.0000 68.1925 25.0631 4.5602 -98.6660 59.7143 -67.4977 0.0000 -0.0000 -20.4529 -17.6153 -34.3185 10.1491 7.1250 -0.0000 -0.0000 19.4676 -64.5808 -9.3956
0.00 0.00 0.00 -107.4640 -85.9149 111.0200 0.0000 0.0000 0.0000 -14.6114 -12.5675 -17.2444 1.6231 8.0325 22.8128 0.0634 -1.1686 -4.4911 0.0069 0.5346 1.4691 0.0000 0.0000 0.0000 23.7424 -0.3657 -15.4115 -10.9449 -17.9080 62.6025 1.0914 -20.4092 2.5033 -0.2805 -3.4062 9.4117 2.0264 1.8706 -1.2411 -1.6446 2.4585 -1.6095 -2.8063 1.1944 -0.7972 -3.1064 2.9651 -15.3717 -7.7783 6.7877 27.2236 -1.4191 1.4881 11.6779 0.0000 -0.0000 0.0000 -88.1070 -14.0176 11.4157 57.9565 -55.7403 -32.6463 -0.0000 0.0000 -30.5106 10.7867 24.2516 4.4745 -7.1250 0.0000 -0.0000 -19.3405 53.5609 -4.1940 0.0000 -0.0000 0.0000 81.3630 19.7575 27.0806 -109.5372 58.5074 -76.8349 0.0000 -0.0000 -17.1831 -18.1764 -30.9309 9.5791 7.1250 -0.0000 -0.0000 15.9236 -61.5181 -6.4945
